<svg width="25" height="26" viewBox="0 0 25 26" fill="none" xmlns="http://www.w3.org/2000/svg">
<path d="M22.4545 10.375H14.6818V2.5C14.6818 1.53367 13.9083 0.75 12.9545 0.75H11.2273C10.2735 0.75 9.5 1.53367 9.5 2.5V10.375H1.72727C0.773494 10.375 0 11.1587 0 12.125V13.875C0 14.8413 0.773494 15.625 1.72727 15.625H9.5V23.5C9.5 24.4663 10.2735 25.25 11.2273 25.25H12.9545C13.9083 25.25 14.6818 24.4663 14.6818 23.5V15.625H22.4545C23.4083 15.625 24.1818 14.8413 24.1818 13.875V12.125C24.1818 11.1587 23.4083 10.375 22.4545 10.375Z" fill="black"/>
</svg>
