<svg width="26" height="26" viewBox="0 0 26 26" fill="none" xmlns="http://www.w3.org/2000/svg">
<g clip-path="url(#clip0_48_233)">
<path d="M25.6445 22.4809L20.5816 17.418C20.3531 17.1895 20.0434 17.0625 19.7184 17.0625H18.8906C20.2922 15.2699 21.125 13.0152 21.125 10.5625C21.125 4.72773 16.3973 0 10.5625 0C4.72773 0 0 4.72773 0 10.5625C0 16.3973 4.72773 21.125 10.5625 21.125C13.0152 21.125 15.2699 20.2922 17.0625 18.8906V19.7184C17.0625 20.0434 17.1895 20.3531 17.418 20.5816L22.4809 25.6445C22.9582 26.1219 23.7301 26.1219 24.2023 25.6445L25.6395 24.2074C26.1168 23.7301 26.1168 22.9582 25.6445 22.4809ZM10.5625 17.0625C6.97227 17.0625 4.0625 14.1578 4.0625 10.5625C4.0625 6.97227 6.96719 4.0625 10.5625 4.0625C14.1527 4.0625 17.0625 6.96719 17.0625 10.5625C17.0625 14.1527 14.1578 17.0625 10.5625 17.0625Z" fill="black"/>
</g>
<defs>
<clipPath id="clip0_48_233">
<rect width="26" height="26" fill="white"/>
</clipPath>
</defs>
</svg>
