<svg width="30" height="24" viewBox="0 0 30 24" fill="none" xmlns="http://www.w3.org/2000/svg">
<path d="M29.1211 12.9961L19.2773 22.8399C18.3984 23.7188 16.875 23.1035 16.875 21.8438V16.2188H8.90625C8.12695 16.2188 7.5 15.5918 7.5 14.8125V9.18753C7.5 8.40823 8.12695 7.78128 8.90625 7.78128H16.875V2.15628C16.875 0.902369 18.3926 0.281275 19.2773 1.16018L29.1211 11.0039C29.666 11.5547 29.666 12.4453 29.1211 12.9961ZM11.25 22.5469V20.2032C11.25 19.8164 10.9336 19.5 10.5469 19.5H5.625C4.58789 19.5 3.75 18.6621 3.75 17.625V6.37503C3.75 5.33792 4.58789 4.50003 5.625 4.50003H10.5469C10.9336 4.50003 11.25 4.18362 11.25 3.7969V1.45315C11.25 1.06643 10.9336 0.750026 10.5469 0.750026H5.625C2.51953 0.750026 0 3.26956 0 6.37503V17.625C0 20.7305 2.51953 23.25 5.625 23.25H10.5469C10.9336 23.25 11.25 22.9336 11.25 22.5469Z" fill="black"/>
</svg>
