<svg width="30" height="30" viewBox="0 0 30 30" fill="none" xmlns="http://www.w3.org/2000/svg">
<path d="M24.375 26.25H19.4531C19.0664 26.25 18.75 25.9336 18.75 25.5469V23.2031C18.75 22.8164 19.0664 22.5 19.4531 22.5H24.375C25.4121 22.5 26.25 21.6621 26.25 20.625V9.375C26.25 8.33789 25.4121 7.5 24.375 7.5H19.4531C19.0664 7.5 18.75 7.18359 18.75 6.79688V4.45312C18.75 4.06641 19.0664 3.75 19.4531 3.75H24.375C27.4805 3.75 30 6.26953 30 9.375V20.625C30 23.7305 27.4805 26.25 24.375 26.25ZM21.6211 14.4727L11.7773 4.62891C10.8984 3.75 9.375 4.36523 9.375 5.625V11.25H1.40625C0.626953 11.25 0 11.877 0 12.6562V18.2812C0 19.0605 0.626953 19.6875 1.40625 19.6875H9.375V25.3125C9.375 26.5723 10.8984 27.1875 11.7773 26.3086L21.6211 16.4648C22.166 15.9141 22.166 15.0234 21.6211 14.4727Z" fill="black"/>
</svg>
