<svg width="27" height="30" viewBox="0 0 27 30" fill="none" xmlns="http://www.w3.org/2000/svg">
<g clip-path="url(#clip0_48_287)">
<path d="M13.0556 15C17.1762 15 20.5159 11.6426 20.5159 7.5C20.5159 3.35742 17.1762 0 13.0556 0C8.9349 0 5.59524 3.35742 5.59524 7.5C5.59524 11.6426 8.9349 15 13.0556 15ZM18.2778 16.875H17.3044C16.0105 17.4727 14.5709 17.8125 13.0556 17.8125C11.5402 17.8125 10.1064 17.4727 8.80667 16.875H7.83333C3.50868 16.875 0 20.4023 0 24.75V27.1875C0 28.7402 1.2531 30 2.79762 30H23.3135C24.858 30 26.1111 28.7402 26.1111 27.1875V24.75C26.1111 20.4023 22.6024 16.875 18.2778 16.875Z" fill="black"/>
</g>
<defs>
<clipPath id="clip0_48_287">
<rect width="26.1111" height="30" fill="white"/>
</clipPath>
</defs>
</svg>
